<svg width="350" height="333" viewBox="0 0 350 333" fill="none" xmlns="http://www.w3.org/2000/svg">
<path d="M127.874 304.936C92.9946 295.356 63.1551 274.132 43.8242 245.156C24.4934 216.179 16.9662 181.391 22.6223 147.167C28.2784 112.943 46.7389 81.5757 74.6202 58.8147C102.501 36.0538 137.936 23.4238 174.429 23.2397L174.229 38.3858C141.584 38.5505 109.885 49.8489 84.9432 70.2102C60.0014 90.5715 43.4871 118.632 38.4273 149.248C33.3675 179.864 40.1012 210.984 57.394 236.906C74.6869 262.828 101.38 281.813 132.582 290.384L127.874 304.936Z" fill="black" fill-opacity="0.88"/>
<path d="M231.364 31.5985C266.131 43.7691 294.719 67.7138 311.674 98.8638C328.628 130.014 332.763 166.188 323.288 200.485C313.813 234.781 291.392 264.799 260.303 284.809C229.214 304.82 191.634 313.424 154.734 308.978L157.031 293.952C190.041 297.929 223.659 290.233 251.47 272.332C279.281 254.431 299.338 227.578 307.814 196.897C316.291 166.216 312.592 133.856 297.425 105.99C282.258 78.1239 256.684 56.7036 225.582 45.8161L231.364 31.5985Z" fill="black" fill-opacity="0.88"/>
<path d="M220 26L185 21.5L146.447 208L191 181L138.5 306.5L262.681 129.779L200 143L220 26Z" fill="#131212" stroke="black"/>
<path d="M187.806 153.5L210 32.6667L205 31L194 31L158 190L170 184L182 178L205.5 167.5L164 260.5L240 141L187.806 153.5Z" fill="#D9D9D9" stroke="white"/>
</svg>
